<svg xmlns="http://www.w3.org/2000/svg" version="1.1" xmlns:xlink="http://www.w3.org/1999/xlink" xmlns:svgjs="http://svgjs.dev/svgjs" width="2000" height="1500" viewBox="0 0 2000 1500"><rect width="2000" height="1500" fill="#ffffff"></rect><g transform="matrix(0.75,0,0,0.75,249.76711428078352,184.20850202429142)"><svg xmlns="http://www.w3.org/2000/svg" version="1.1" xmlns:xlink="http://www.w3.org/1999/xlink" xmlns:svgjs="http://svgjs.com/svgjs" viewBox="0 0 327 247" data-background-color="#f2f996" preserveAspectRatio="xMidYMid meet" height="1510" width="2000"><defs></defs><g id="tight-bounds" transform="matrix(1,0,0,1,0.05076908678918812,-0.09999999999999432)"><svg viewBox="0 0 326.8984618264216 247.2" height="247.2" width="326.8984618264216"><g><svg viewBox="0 0 395.52 299.0914776831095" height="247.2" width="326.8984618264216"><g transform="matrix(1,0,0,1,0,224.32002891985863)"><svg viewBox="0 0 395.52 74.77144876325087" height="74.77144876325087" width="395.52"><g><svg viewBox="0 0 395.52 74.77144876325087" height="74.77144876325087" width="395.52"><g><svg viewBox="0 0 395.52 74.77144876325087" height="74.77144876325087" width="395.52"><g transform="matrix(1,0,0,1,0,0)"><svg width="395.52" viewBox="3.9 -37.1 198.09 37.45" height="74.77144876325087" data-palette-color="#332b98"><path d="M38.9-26.7L45.15-26.7 45.15-11.95Q45.15-6.1 42.1-2.88 39.05 0.35 33.35 0.35L33.35 0.35Q27.2 0.35 24.5-3.8L24.5-3.8Q23.1-1.7 20.93-0.68 18.75 0.35 15.65 0.35L15.65 0.35Q9.95 0.35 6.93-2.88 3.9-6.1 3.9-11.95L3.9-11.95 3.9-26.7 10.15-26.7 10.15-12.5Q10.15-8.7 11.48-6.9 12.8-5.1 15.7-5.1L15.7-5.1Q18.6-5.1 20-6.93 21.4-8.75 21.4-12.5L21.4-12.5 21.4-26.7 27.65-26.7 27.65-12.5Q27.65-8.75 29.05-6.93 30.45-5.1 33.35-5.1L33.35-5.1Q36.25-5.1 37.58-6.9 38.9-8.7 38.9-12.5L38.9-12.5 38.9-26.7ZM65.8-4.95Q70.15-4.95 73.05-7.85L73.05-7.85 76.35-4Q74.6-1.85 71.85-0.75 69.1 0.35 65.65 0.35L65.65 0.35Q61.25 0.35 57.9-1.4 54.55-3.15 52.72-6.28 50.9-9.4 50.9-13.35L50.9-13.35Q50.9-17.25 52.67-20.38 54.45-23.5 57.57-25.25 60.7-27 64.65-27L64.65-27Q68.4-27 71.47-25.38 74.55-23.75 76.35-20.73 78.15-17.7 78.15-13.65L78.15-13.65 57.7-9.65Q58.65-7.35 60.75-6.15 62.85-4.95 65.8-4.95L65.8-4.95ZM64.65-22Q61.2-22 59.07-19.75 56.95-17.5 56.95-13.7L56.95-13.7 56.95-13.65 72.05-16.55Q71.4-19 69.42-20.5 67.45-22 64.65-22L64.65-22ZM96.84-4.95Q101.2-4.95 104.09-7.85L104.09-7.85 107.4-4Q105.65-1.85 102.9-0.75 100.15 0.35 96.7 0.35L96.7 0.35Q92.3 0.35 88.95-1.4 85.59-3.15 83.77-6.28 81.95-9.4 81.95-13.35L81.95-13.35Q81.95-17.25 83.72-20.38 85.5-23.5 88.62-25.25 91.75-27 95.7-27L95.7-27Q99.45-27 102.52-25.38 105.59-23.75 107.4-20.73 109.2-17.7 109.2-13.65L109.2-13.65 88.75-9.65Q89.7-7.35 91.8-6.15 93.9-4.95 96.84-4.95L96.84-4.95ZM95.7-22Q92.25-22 90.12-19.75 88-17.5 88-13.7L88-13.7 88-13.65 103.09-16.55Q102.45-19 100.47-20.5 98.5-22 95.7-22L95.7-22ZM135.34 0L126.09-11.45 121.44-7.05 121.44 0 115.19 0 115.19-37.1 121.44-37.1 121.44-14.7 134.39-26.7 141.89-26.7 130.74-15.5 142.94 0 135.34 0ZM158.59-4.95Q162.94-4.95 165.84-7.85L165.84-7.85 169.14-4Q167.39-1.85 164.64-0.75 161.89 0.35 158.44 0.35L158.44 0.35Q154.04 0.35 150.69-1.4 147.34-3.15 145.52-6.28 143.69-9.4 143.69-13.35L143.69-13.35Q143.69-17.25 145.47-20.38 147.24-23.5 150.37-25.25 153.49-27 157.44-27L157.44-27Q161.19-27 164.27-25.38 167.34-23.75 169.14-20.73 170.94-17.7 170.94-13.65L170.94-13.65 150.49-9.65Q151.44-7.35 153.54-6.15 155.64-4.95 158.59-4.95L158.59-4.95ZM157.44-22Q153.99-22 151.87-19.75 149.74-17.5 149.74-13.7L149.74-13.7 149.74-13.65 164.84-16.55Q164.19-19 162.22-20.5 160.24-22 157.44-22L157.44-22ZM189.64-4.95Q193.99-4.95 196.89-7.85L196.89-7.85 200.19-4Q198.44-1.85 195.69-0.75 192.94 0.35 189.49 0.35L189.49 0.35Q185.09 0.35 181.74-1.4 178.39-3.15 176.56-6.28 174.74-9.4 174.74-13.35L174.74-13.35Q174.74-17.25 176.51-20.38 178.29-23.5 181.41-25.25 184.54-27 188.49-27L188.49-27Q192.24-27 195.31-25.38 198.39-23.75 200.19-20.73 201.99-17.7 201.99-13.65L201.99-13.65 181.54-9.65Q182.49-7.35 184.59-6.15 186.69-4.95 189.64-4.95L189.64-4.95ZM188.49-22Q185.04-22 182.91-19.75 180.79-17.5 180.79-13.7L180.79-13.7 180.79-13.65 195.89-16.55Q195.24-19 193.26-20.5 191.29-22 188.49-22L188.49-22Z" opacity="1" transform="matrix(1,0,0,1,0,0)" fill="#000000" class="undefined-text-0" data-fill-palette-color="primary" id="text-0"></path></svg></g></svg></g></svg></g></svg></g><g transform="matrix(1,0,0,1,94.42585780918728,0)"><svg viewBox="0 0 206.66828438162543 206.66828438162543" height="206.66828438162543" width="206.66828438162543"><g><svg xmlns="http://www.w3.org/2000/svg" data-name="Layer 1" viewBox="10 10 44 44" x="0" y="0" height="206.66828438162543" width="206.66828438162543" class="icon-icon-0" data-fill-palette-color="accent" id="icon-0"><polygon points="18 10 10 10 10 24 10 40 10 54 18 54 18 10" fill="#000000" data-fill-palette-color="accent"></polygon><polygon points="46 54 54 54 54 40 54 24 54 10 46 10 46 54" fill="#000000" data-fill-palette-color="accent"></polygon><rect x="22" y="10" width="8" height="44" fill="#000000" data-fill-palette-color="accent"></rect><polygon points="42 54 42 10 40 10 34 10 34 54 40 54 42 54" fill="#000000" data-fill-palette-color="accent"></polygon></svg></g></svg></g><g></g></svg></g></svg><rect width="326.8984618264216" height="247.2" fill="none" stroke="none" visibility="hidden"></rect></g></svg></g></svg>